<?xml version="1.0" encoding="UTF-8" standalone="no"?>
<!-- Created with Inkscape (http://www.inkscape.org/) -->

<svg
   xmlns:dc="http://purl.org/dc/elements/1.1/"
   xmlns:cc="http://creativecommons.org/ns#"
   xmlns:rdf="http://www.w3.org/1999/02/22-rdf-syntax-ns#"
   xmlns:svg="http://www.w3.org/2000/svg"
   xmlns="http://www.w3.org/2000/svg"
   xmlns:sodipodi="http://sodipodi.sourceforge.net/DTD/sodipodi-0.dtd"
   xmlns:inkscape="http://www.inkscape.org/namespaces/inkscape"
   width="744.09448819"
   height="1052.3622047"
   id="svg2"
   version="1.1"
   inkscape:version="0.48.1 "
   sodipodi:docname="multicam-logo.svg"
   inkscape:export-filename="C:\Users\jmac\Documents\research\multicam\pictures\icons\multicam-icon.png"
   inkscape:export-xdpi="175.88"
   inkscape:export-ydpi="175.88">
  <defs
     id="defs4" />
  <sodipodi:namedview
     id="base"
     pagecolor="#ffffff"
     bordercolor="#666666"
     borderopacity="1.0"
     inkscape:pageopacity="0"
     inkscape:pageshadow="2"
     inkscape:zoom="0.98994949"
     inkscape:cx="127.56924"
     inkscape:cy="430.32371"
     inkscape:document-units="px"
     inkscape:current-layer="layer1"
     showgrid="false"
     inkscape:window-width="1280"
     inkscape:window-height="949"
     inkscape:window-x="-9"
     inkscape:window-y="-9"
     inkscape:window-maximized="1">
    <inkscape:grid
       type="xygrid"
       id="grid3802" />
  </sodipodi:namedview>
  <metadata
     id="metadata7">
    <rdf:RDF>
      <cc:Work
         rdf:about="">
        <dc:format>image/svg+xml</dc:format>
        <dc:type
           rdf:resource="http://purl.org/dc/dcmitype/StillImage" />
        <dc:title></dc:title>
      </cc:Work>
    </rdf:RDF>
  </metadata>
  <g
     inkscape:label="Layer 1"
     inkscape:groupmode="layer"
     id="layer1">
    <g
       id="g3844"
       transform="translate(-8.4285706,6.7857134)"
       style="stroke:#0072ff;stroke-opacity:1;fill:#a6c2e2;fill-opacity:1;opacity:1">
      <path
         d="m 269.96326,492.2326 c 0,15.34203 -12.43717,27.7792 -27.77919,27.7792 -15.34203,0 -27.7792,-12.43717 -27.7792,-27.7792 0,-15.34202 12.43717,-27.77919 27.7792,-27.77919 15.34202,0 27.77919,12.43717 27.77919,27.77919 z"
         sodipodi:ry="27.779196"
         sodipodi:rx="27.779196"
         sodipodi:cy="492.2326"
         sodipodi:cx="242.18407"
         id="path3779"
         style="fill:#a6c2e2;fill-opacity:1;stroke:#0072ff;stroke-width:8.60000038000000090;stroke-linecap:round;stroke-miterlimit:4;stroke-opacity:1;stroke-dasharray:none;stroke-dashoffset:0"
         sodipodi:type="arc"
         transform="matrix(-0.0032897,-0.99999458,0.99999458,-0.0032897,-321.96323,810.89516)" />
      <path
         transform="matrix(-0.23633686,-0.04671282,0.04671282,-0.23633686,197.62221,700.84211)"
         sodipodi:type="arc"
         style="fill:#a6c2e2;fill-opacity:1;stroke:#0072ff;stroke-width:35.69810867000000300;stroke-linecap:round;stroke-miterlimit:4;stroke-opacity:1;stroke-dasharray:none;stroke-dashoffset:0"
         id="path3781"
         sodipodi:cx="242.18407"
         sodipodi:cy="492.2326"
         sodipodi:rx="27.779196"
         sodipodi:ry="27.779196"
         d="m 269.96326,492.2326 c 0,15.34203 -12.43717,27.7792 -27.77919,27.7792 -15.34203,0 -27.7792,-12.43717 -27.7792,-27.7792 0,-15.34202 12.43717,-27.77919 27.7792,-27.77919 15.34202,0 27.77919,12.43717 27.77919,27.77919 z" />
    </g>
    <g
       id="g3840"
       transform="translate(6.2499992,3.3928568)"
       style="stroke:#0072ff;stroke-opacity:1;fill:#a6c2e2;fill-opacity:1;opacity:1">
      <path
         transform="matrix(0.2879049,0.957659,-0.957659,0.2879049,492.41323,217.39154)"
         sodipodi:type="arc"
         style="fill:#a6c2e2;fill-opacity:1;stroke:#0072ff;stroke-width:8.60000038000000090;stroke-linecap:round;stroke-miterlimit:4;stroke-opacity:1;stroke-dasharray:none;stroke-dashoffset:0"
         id="path3785"
         sodipodi:cx="242.18407"
         sodipodi:cy="492.2326"
         sodipodi:rx="27.779196"
         sodipodi:ry="27.779196"
         d="m 269.96326,492.2326 c 0,15.34203 -12.43717,27.7792 -27.77919,27.7792 -15.34203,0 -27.7792,-12.43717 -27.7792,-27.7792 0,-15.34202 12.43717,-27.77919 27.7792,-27.77919 15.34202,0 27.77919,12.43717 27.77919,27.77919 z" />
      <path
         d="m 269.96326,492.2326 c 0,15.34203 -12.43717,27.7792 -27.77919,27.7792 -15.34203,0 -27.7792,-12.43717 -27.7792,-27.7792 0,-15.34202 12.43717,-27.77919 27.7792,-27.77919 15.34202,0 27.77919,12.43717 27.77919,27.77919 z"
         sodipodi:ry="27.779196"
         sodipodi:rx="27.779196"
         sodipodi:cy="492.2326"
         sodipodi:cx="242.18407"
         id="path3787"
         style="fill:#a6c2e2;fill-opacity:1;stroke:#0072ff;stroke-width:35.69810867000000300;stroke-linecap:round;stroke-miterlimit:4;stroke-opacity:1;stroke-dasharray:none;stroke-dashoffset:0"
         sodipodi:type="arc"
         transform="matrix(0.06935891,0.23070878,-0.23070878,0.06935891,195.34457,503.7016)" />
    </g>
    <g
       id="g3848"
       transform="translate(-3.928571,-7.499999)"
       style="stroke:#0072ff;stroke-opacity:1;fill:#a6c2e2;fill-opacity:1;opacity:1">
      <path
         d="m 269.96326,492.2326 c 0,15.34203 -12.43717,27.7792 -27.77919,27.7792 -15.34203,0 -27.7792,-12.43717 -27.7792,-27.7792 0,-15.34202 12.43717,-27.77919 27.7792,-27.77919 15.34202,0 27.77919,12.43717 27.77919,27.77919 z"
         sodipodi:ry="27.779196"
         sodipodi:rx="27.779196"
         sodipodi:cy="492.2326"
         sodipodi:cx="242.18407"
         id="path3791"
         style="fill:#a6c2e2;fill-opacity:1;stroke:#0072ff;stroke-width:8.60000038000000090;stroke-linecap:round;stroke-miterlimit:4;stroke-opacity:1;stroke-dasharray:none;stroke-dashoffset:0"
         sodipodi:type="arc"
         transform="matrix(0.47720327,-0.87879295,0.87879295,0.47720327,-397.25081,625.38468)" />
      <path
         transform="matrix(0.11496262,-0.21170923,0.21170923,0.11496262,14.992842,634.5311)"
         sodipodi:type="arc"
         style="fill:#a6c2e2;fill-opacity:1;stroke:#0072ff;stroke-width:35.69810867000000300;stroke-linecap:round;stroke-miterlimit:4;stroke-opacity:1;stroke-dasharray:none;stroke-dashoffset:0"
         id="path3793"
         sodipodi:cx="242.18407"
         sodipodi:cy="492.2326"
         sodipodi:rx="27.779196"
         sodipodi:ry="27.779196"
         d="m 269.96326,492.2326 c 0,15.34203 -12.43717,27.7792 -27.77919,27.7792 -15.34203,0 -27.7792,-12.43717 -27.7792,-27.7792 0,-15.34202 12.43717,-27.77919 27.7792,-27.77919 15.34202,0 27.77919,12.43717 27.77919,27.77919 z" />
    </g>
    <text
       sodipodi:linespacing="125%"
       id="text3003"
       y="701.99603"
       x="65.012779"
       style="font-size:28.82289886px;font-style:oblique;font-variant:normal;font-weight:normal;font-stretch:normal;text-align:start;line-height:125%;letter-spacing:0px;word-spacing:0px;writing-mode:lr-tb;text-anchor:start;fill:#0072ff;fill-opacity:1;stroke:#0072ff;stroke-width:0.99999994;stroke-opacity:1;font-family:Candara;-inkscape-font-specification:Candara Oblique"
       xml:space="preserve"
       transform="scale(0.99949803,1.0005022)"><tspan
         style="font-size:32.94045639px;font-style:oblique;font-variant:normal;font-weight:normal;font-stretch:normal;text-align:start;line-height:125%;writing-mode:lr-tb;text-anchor:start;fill:#0072ff;fill-opacity:1;stroke:#0072ff;stroke-width:0.99999994;stroke-opacity:1;font-family:Candara;-inkscape-font-specification:Candara Oblique"
         y="701.99603"
         x="65.012779"
         id="tspan3005"
         sodipodi:role="line">MultiCam</tspan></text>
    <flowRoot
       xml:space="preserve"
       id="flowRoot3007"
       style="fill:black;stroke:none;stroke-opacity:1;stroke-width:1px;stroke-linejoin:miter;stroke-linecap:butt;fill-opacity:1;font-family:Sans;font-style:normal;font-weight:normal;font-size:10px;line-height:125%;letter-spacing:0px;word-spacing:0px;-inkscape-font-specification:Sans;font-stretch:normal;font-variant:normal;text-anchor:start;text-align:start;writing-mode:lr"><flowRegion
         id="flowRegion3009"><rect
           id="rect3011"
           width="318.57144"
           height="157.14285"
           x="49.285713"
           y="679.50507" /></flowRegion><flowPara
         id="flowPara3013"></flowPara></flowRoot>    <g
       style="fill:#a6c2e2;fill-opacity:1;stroke:#0072ff;stroke-opacity:1"
       transform="translate(261.57143,6.7857134)"
       id="g3804">
      <path
         transform="matrix(-0.0032897,-0.99999458,0.99999458,-0.0032897,-321.96323,810.89516)"
         sodipodi:type="arc"
         style="fill:#a6c2e2;fill-opacity:1;stroke:#0072ff;stroke-width:8.60000038;stroke-linecap:round;stroke-miterlimit:4;stroke-opacity:1;stroke-dasharray:none;stroke-dashoffset:0"
         id="path3806"
         sodipodi:cx="242.18407"
         sodipodi:cy="492.2326"
         sodipodi:rx="27.779196"
         sodipodi:ry="27.779196"
         d="m 269.96326,492.2326 c 0,15.34203 -12.43717,27.7792 -27.77919,27.7792 -15.34203,0 -27.7792,-12.43717 -27.7792,-27.7792 0,-15.34202 12.43717,-27.77919 27.7792,-27.77919 15.34202,0 27.77919,12.43717 27.77919,27.77919 z" />
      <path
         d="m 269.96326,492.2326 c 0,15.34203 -12.43717,27.7792 -27.77919,27.7792 -15.34203,0 -27.7792,-12.43717 -27.7792,-27.7792 0,-15.34202 12.43717,-27.77919 27.7792,-27.77919 15.34202,0 27.77919,12.43717 27.77919,27.77919 z"
         sodipodi:ry="27.779196"
         sodipodi:rx="27.779196"
         sodipodi:cy="492.2326"
         sodipodi:cx="242.18407"
         id="path3808"
         style="fill:#a6c2e2;fill-opacity:1;stroke:#0072ff;stroke-width:35.69810867;stroke-linecap:round;stroke-miterlimit:4;stroke-opacity:1;stroke-dasharray:none;stroke-dashoffset:0"
         sodipodi:type="arc"
         transform="matrix(-0.23633686,-0.04671282,0.04671282,-0.23633686,197.62221,700.84211)" />
    </g>
    <g
       style="fill:#a6c2e2;fill-opacity:1;stroke:#0072ff;stroke-opacity:1"
       transform="translate(276.25,3.3928568)"
       id="g3810">
      <path
         d="m 269.96326,492.2326 c 0,15.34203 -12.43717,27.7792 -27.77919,27.7792 -15.34203,0 -27.7792,-12.43717 -27.7792,-27.7792 0,-15.34202 12.43717,-27.77919 27.7792,-27.77919 15.34202,0 27.77919,12.43717 27.77919,27.77919 z"
         sodipodi:ry="27.779196"
         sodipodi:rx="27.779196"
         sodipodi:cy="492.2326"
         sodipodi:cx="242.18407"
         id="path3812"
         style="fill:#a6c2e2;fill-opacity:1;stroke:#0072ff;stroke-width:8.60000038;stroke-linecap:round;stroke-miterlimit:4;stroke-opacity:1;stroke-dasharray:none;stroke-dashoffset:0"
         sodipodi:type="arc"
         transform="matrix(0.2879049,0.957659,-0.957659,0.2879049,492.41323,217.39154)" />
      <path
         transform="matrix(0.06935891,0.23070878,-0.23070878,0.06935891,195.34457,503.7016)"
         sodipodi:type="arc"
         style="fill:#a6c2e2;fill-opacity:1;stroke:#0072ff;stroke-width:35.69810867;stroke-linecap:round;stroke-miterlimit:4;stroke-opacity:1;stroke-dasharray:none;stroke-dashoffset:0"
         id="path3814"
         sodipodi:cx="242.18407"
         sodipodi:cy="492.2326"
         sodipodi:rx="27.779196"
         sodipodi:ry="27.779196"
         d="m 269.96326,492.2326 c 0,15.34203 -12.43717,27.7792 -27.77919,27.7792 -15.34203,0 -27.7792,-12.43717 -27.7792,-27.7792 0,-15.34202 12.43717,-27.77919 27.7792,-27.77919 15.34202,0 27.77919,12.43717 27.77919,27.77919 z" />
    </g>
    <text
       transform="scale(0.99949805,1.0005022)"
       xml:space="preserve"
       style="font-size:28.82289886px;font-style:oblique;font-variant:normal;font-weight:normal;font-stretch:normal;text-align:start;line-height:125%;letter-spacing:0px;word-spacing:0px;writing-mode:lr-tb;text-anchor:start;fill:#0072ff;fill-opacity:1;stroke:#0072ff;stroke-width:0.99999994;stroke-opacity:1;font-family:Candara;-inkscape-font-specification:Candara Oblique"
       x="335.14868"
       y="656.01849"
       id="text3822"
       sodipodi:linespacing="125%"><tspan
         sodipodi:role="line"
         id="tspan3824"
         x="335.14868"
         y="656.01849"
         style="font-size:32.94045639px;font-style:oblique;font-variant:normal;font-weight:normal;font-stretch:normal;text-align:start;line-height:125%;writing-mode:lr-tb;text-anchor:start;fill:#0072ff;fill-opacity:1;stroke:#0072ff;stroke-width:0.99999994;stroke-opacity:1;font-family:Candara;-inkscape-font-specification:Candara Oblique">MultiCam</tspan></text>
  </g>
</svg>
